<?xml version="1.0" encoding="UTF-8"?>
<svg id="Layer_5" xmlns="http://www.w3.org/2000/svg" version="1.1" viewBox="0 0 24 24">
  <!-- Generator: Adobe Illustrator 30.0.0, SVG Export Plug-In . SVG Version: 2.1.1 Build 123)  -->
  <defs>
    <style>
      .st0 {
        fill: #040000;
      }
    </style>
  </defs>
  <path class="st0" d="M12,8.06c-2.25,0-3.94,1.83-3.94,3.94,0,2.25,1.83,3.94,3.94,3.94s3.94-1.83,3.94-3.94c.14-2.11-1.69-3.94-3.94-3.94"/>
  <path class="st0" d="M16.85,0H7.15C3.24,0,0,3.24,0,7.15v9.71c0,3.91,3.24,7.15,7.15,7.15h9.71c3.91,0,7.15-3.24,7.15-7.15V7.15C24,3.24,20.76,0,16.85,0ZM12,18.47c-3.51,0-6.47-2.95-6.47-6.47s2.95-6.47,6.47-6.47,6.47,2.95,6.47,6.47-2.81,6.47-6.47,6.47ZM18.61,7.22c-.84,0-1.55-.7-1.55-1.55s.7-1.55,1.55-1.55,1.55.7,1.55,1.55-.7,1.55-1.55,1.55Z"/>
</svg>