<?xml version="1.0" encoding="UTF-8"?>
<svg id="Layer_5" xmlns="http://www.w3.org/2000/svg" version="1.1" viewBox="0 0 24 24">
  <!-- Generator: Adobe Illustrator 30.0.0, SVG Export Plug-In . SVG Version: 2.1.1 Build 123)  -->
  <defs>
    <style>
      .st0 {
        fill: #231815;
      }
    </style>
  </defs>
  <path class="st0" d="M12,0C5.37,0,0,5.37,0,12s5.37,12,12,12,12-5.37,12-12S18.63,0,12,0ZM22.48,14.57h-3.42c.11-.83.17-1.68.17-2.57,0-1.13-.1-2.22-.27-3.25h3.34c.33,1.03.5,2.12.5,3.25,0,.89-.12,1.74-.32,2.57ZM1.2,12c0-1.13.18-2.23.5-3.25h3.59c-.17,1.03-.27,2.12-.27,3.25,0,.89.06,1.74.17,2.57H1.52c-.2-.82-.32-1.68-.32-2.57ZM6.22,12c0-1.13.11-2.22.3-3.25h4.88v5.82h-4.99c-.12-.83-.19-1.68-.19-2.57ZM12.6,1.5c2.11.25,3.96,2.67,4.85,6.03h-4.85V1.5ZM11.4,1.53v6h-4.61c.86-3.23,2.59-5.6,4.61-6ZM11.4,15.8v6.67c-2.15-.43-3.99-3.1-4.77-6.67h4.77ZM12.6,22.5v-6.7h5.02c-.81,3.7-2.76,6.44-5.02,6.7ZM12.6,14.57v-5.82h5.13c.19,1.03.3,2.12.3,3.25,0,.88-.07,1.74-.19,2.57h-5.24ZM21.82,7.53h-3.11c-.57-2.37-1.58-4.33-2.86-5.61,2.65,1.02,4.8,3.04,5.97,5.61ZM8.54,1.78c-1.36,1.28-2.42,3.29-3.01,5.75h-3.35c1.23-2.69,3.53-4.79,6.36-5.75ZM1.9,15.8h3.49c.55,2.76,1.67,5.03,3.15,6.42-3.06-1.04-5.5-3.41-6.64-6.42ZM15.85,22.08c1.41-1.4,2.48-3.61,3.01-6.28h3.24c-1.09,2.88-3.37,5.18-6.25,6.28Z"/>
</svg>