<?xml version="1.0" encoding="UTF-8"?>
<svg id="Layer_5" xmlns="http://www.w3.org/2000/svg" version="1.1" viewBox="0 0 24 24">
  <!-- Generator: Adobe Illustrator 30.0.0, SVG Export Plug-In . SVG Version: 2.1.1 Build 123)  -->
  <defs>
    <style>
      .st0 {
        fill: #231815;
      }
    </style>
  </defs>
  <path class="st0" d="M24,10.3C24,4.93,18.62.57,12,.57S0,4.93,0,10.3c0,4.81,4.27,8.85,10.04,9.61.39.08.92.26,1.06.59.12.3.08.78.04,1.09,0,0-.14.85-.17,1.03-.05.3-.24,1.19,1.04.65,1.28-.54,6.91-4.07,9.43-6.97h0c1.74-1.91,2.57-3.84,2.57-5.99ZM7.77,13.18c0,.13-.1.23-.23.23h-3.37c-.13,0-.23-.1-.23-.23h0v-5.24c0-.13.1-.23.23-.23h.85c.13,0,.23.1.23.23v4.16h2.29c.13,0,.23.1.23.23v.85ZM9.8,13.18c0,.13-.1.23-.23.23h-.85c-.13,0-.23-.1-.23-.23v-5.24c0-.13.1-.23.23-.23h.85c.13,0,.23.1.23.23v5.24ZM15.59,13.18c0,.13-.1.23-.23.23h-.85s-.04,0-.06,0c0,0,0,0,0,0,0,0-.01,0-.02,0,0,0,0,0,0,0,0,0,0,0-.01,0,0,0,0,0-.01,0,0,0,0,0,0,0,0,0,0,0-.01,0,0,0,0,0,0,0-.02-.02-.04-.03-.06-.06l-2.4-3.24v3.11c0,.13-.1.23-.23.23h-.85c-.13,0-.23-.1-.23-.23v-5.24c0-.13.1-.23.23-.23h.85s0,0,0,0c0,0,0,0,.01,0,0,0,0,0,.01,0,0,0,0,0,0,0,0,0,0,0,.01,0,0,0,0,0,0,0,0,0,0,0,.01,0,0,0,0,0,0,0,0,0,0,0,.01,0,0,0,0,0,0,0,0,0,0,0,.01,0,0,0,0,0,0,0,0,0,0,0,.01,0,0,0,0,0,0,0,0,0,0,0,.01.01,0,0,0,0,0,0,0,0,0,0,.01.01,0,0,0,0,0,0,0,0,.01.02.02.02l2.4,3.24v-3.11c0-.13.1-.23.23-.23h.85c.13,0,.23.1.23.23v5.24ZM20.24,8.79c0,.13-.1.23-.23.23h-2.29v.88h2.29c.13,0,.23.1.23.23v.85c0,.13-.1.23-.23.23h-2.29v.88h2.29c.13,0,.23.1.23.23v.85c0,.13-.1.23-.23.23h-3.37c-.13,0-.23-.1-.23-.23h0v-5.23h0c0-.13.1-.23.23-.23h3.37c.13,0,.23.1.23.23v.85Z"/>
</svg>