<?xml version="1.0" encoding="UTF-8"?>
<svg id="Layer_5" xmlns="http://www.w3.org/2000/svg" version="1.1" viewBox="0 0 24 24">
  <!-- Generator: Adobe Illustrator 30.0.0, SVG Export Plug-In . SVG Version: 2.1.1 Build 123)  -->
  <defs>
    <style>
      .st0 {
        fill: #030000;
      }
    </style>
  </defs>
  <path class="st0" d="M23.49,6.22c-.28-1.03-1.07-1.84-2.12-2.12-1.86-.51-9.38-.51-9.38-.51,0,0-7.5,0-9.36.51-1.03.28-1.84,1.09-2.14,2.12-.49,1.86-.49,5.77-.49,5.77,0,0,0,3.91.49,5.79.3,1.02,1.1,1.84,2.14,2.12,1.86.51,9.36.51,9.36.51,0,0,7.52,0,9.38-.51,1.05-.28,1.84-1.1,2.12-2.12.51-1.88.51-5.79.51-5.79,0,0,0-3.91-.51-5.77ZM9.61,15.6v-7.21l6.22,3.59-6.22,3.61Z"/>
</svg>