<?xml version="1.0" encoding="UTF-8"?>
<svg id="_圖層_1" data-name="圖層_1" xmlns="http://www.w3.org/2000/svg" version="1.1" viewBox="0 0 200 118">
  <!-- Generator: Adobe Illustrator 29.0.0, SVG Export Plug-In . SVG Version: 2.1.0 Build 186)  -->
  <defs>
    <style>
      .st0 {
        fill: #fff;
      }
    </style>
  </defs>
  <g>
    <polygon class="st0" points="77.3 110 72.5 110 72.5 103.6 70 103.6 70 117.8 72.5 117.8 72.5 112.5 77.3 112.5 77.3 117.8 79.8 117.8 79.8 103.6 77.3 103.6 77.3 110"/>
    <path class="st0" d="M91.2,103.6c-2,0-3.7.7-5,2.1s-2.1,3.1-2.1,5,.7,3.7,2.1,5,3.1,2.1,5,2.1,3.7-.7,5-2.1,2.1-3.1,2.1-5-.7-3.7-2.1-5c-1.4-1.4-3.1-2.1-5-2.1ZM91.2,115.4c-1.3,0-2.4-.5-3.3-1.4-.9-.9-1.4-2-1.4-3.3s.5-2.4,1.4-3.3c.9-.9,2-1.4,3.3-1.4s2.4.5,3.3,1.4c.9.9,1.4,2,1.4,3.3s-.5,2.4-1.4,3.3c-.9.9-2,1.4-3.3,1.4Z"/>
    <polygon class="st0" points="102 106.1 105.4 106.1 105.4 117.8 107.9 117.8 107.9 106.1 111.2 106.1 111.2 103.6 102 103.6 102 106.1"/>
    <polygon class="st0" points="133.1 103.6 130.6 103.6 130.6 117.8 139.2 117.8 139.2 115.4 133.1 115.4 133.1 103.6"/>
    <polygon class="st0" points="116.5 117.8 125 117.8 125 115.4 119 115.4 119 112 124.8 112 124.8 109.5 119 109.5 119 106.1 125 106.1 125 103.6 116.5 103.6 116.5 117.8"/>
  </g>
  <g>
    <path class="st0" d="M22.1,47.9c0,6-2.1,11.1-6.3,15.3-4.2,4.2-9.4,6.3-15.3,6.3h-.5v9.4h.5c8.5,0,15.9-3.1,21.9-9.1,6-6,9.1-13.3,9.1-21.9V9.5l-9.4,6.7v31.6Z"/>
    <path class="st0" d="M58.5,33.5c-4.9,0-9,1.7-12.5,5.3-3.5,3.4-5.3,7.6-5.3,12.5s1.8,9.1,5.3,12.6c3.5,3.5,7.6,5.2,12.5,5.2s9.1-1.7,12.6-5.2c3.5-3.5,5.2-7.7,5.2-12.6s-1.7-9.1-5.2-12.5c-3.5-3.5-7.6-5.3-12.6-5.3ZM65.1,57.8c-1.8,1.8-4,2.7-6.6,2.7s-4.7-.9-6.6-2.7c-1.8-1.9-2.7-4-2.7-6.6s.9-4.8,2.7-6.6c1.9-1.8,4-2.7,6.6-2.7s4.8.9,6.6,2.7c1.8,1.8,2.7,4,2.7,6.6s-.9,4.7-2.7,6.6Z"/>
    <polygon class="st0" points="84.4 80.8 93.7 80.8 93.7 11.4 84.4 18.2 84.4 80.8"/>
    <polygon class="st0" points="111.9 .2 102.6 6.9 102.6 69.5 111.9 69.5 111.9 .2"/>
    <path class="st0" d="M146.4,55.8c-.7,1.1-1.5,1.9-2.5,2.7-1,.7-2,1.2-3.2,1.5h-.4c-1.1.3-2.2.3-3.4.2-.9-.2-1.8-.5-2.8-.9l21.1-15.2c-2.7-4-5.2-6.7-7.6-8.2-2-1.2-4.1-2-6.4-2.4-2.2-.4-4.4-.3-6.6.1h-.4c-2.2.6-4.3,1.6-6.2,3-2,1.3-3.6,3.1-4.8,5.2-1.2,2-2,4.1-2.4,6.4-.4,2.2-.3,4.4.2,6.6v.6c.7,2.2,1.6,4.2,3,6,1.4,1.9,3.1,3.5,5.2,4.8,2,1.2,4.1,2,6.4,2.4,2.2.3,4.4.3,6.6-.2h.5c2.2-.7,4.2-1.6,6.1-3,1.9-1.4,3.6-3.1,4.8-5.2,1.2-2,2-4.1,2.4-6.4l-8.3-1.3c-.2,1.1-.6,2.3-1.2,3.3ZM129.3,49.5c.3-1.2.6-2.3,1.2-3.3.7-1.1,1.5-1.9,2.6-2.7,1-.7,2.1-1.2,3.2-1.5h.1c1.2-.3,2.4-.4,3.6-.1,1,.2,1.8.5,2.7.9l-13.5,9.7c-.1-1-.1-1.9,0-2.9Z"/>
    <path class="st0" d="M191.6,39.1v11.9c0,2.5-.9,4.7-2.7,6.5-1.8,1.8-4,2.7-6.5,2.7s-3.9-.9-5.7-2.7c-1.8-1.8-2.7-4-2.7-6.5v-18l-8.4,6.1v11.9c0,4.8,1.7,8.9,5.2,12.4,3.4,3.4,6.8,5.1,11.6,5.1s6.4-.9,9.2-2.6v1.2c0,5.4-1.5,9.3-4.5,11.6-1.7,1.3-2.8,2-4.9,2v8.4c4.4,0,7.5-1.5,10.9-4.5,4.6-3.9,6.8-9.8,6.8-17.5v-34.1l-8.4,6.1Z"/>
  </g>
</svg>