<?xml version="1.0" encoding="utf-8"?>
<!-- Generator: Adobe Illustrator 24.3.0, SVG Export Plug-In . SVG Version: 6.00 Build 0)  -->
<svg version="1.1" id="圖層_1" xmlns="http://www.w3.org/2000/svg" xmlns:xlink="http://www.w3.org/1999/xlink" x="0px" y="0px"
	 viewBox="0 0 250 46.1" width="250" height="46.1" style="enable-background:new 0 0 250 46.1;" xml:space="preserve">
<style type="text/css">
	.st0{fill:#B71C25;}
</style>
<g>
	<g>
		<g>
			<path class="st0" d="M17.2,42.6c-1.6,0-3.4-0.3-5.3-0.6c-1.9-0.3-3.8-0.9-5.6-1.6c-1.9-0.6-3.1-1.6-4.4-2.5
				C0.6,36.7,0,35.4,0,33.9c0,0,0-0.3,0-0.6c0-0.3,0-0.3,0-0.6c0-0.3,0-0.3,0-0.6c0-0.3,0-0.3,0.3-0.3s0.3,0,0.6,0.3
				c0.3,0.3,0.3,0.3,0.3,0.6c0,0.3,0.3,0.3,0.3,0.6s0,0.3,0,0.6c0,0.3,0,0.3,0,0.6c0,0.3,0,0.3,0,0.6c0,0.3,0,0.3,0,0.6
				c0,0,0,0.3,0.3,0.6c0.9,0.9,1.9,1.6,3.1,1.9c1.6,0.3,2.8,0.6,4.4,0.9c1.6,0.3,3.1,0.6,4.7,0.6s2.8,0.3,4.1,0.3
				c0.6-1.3,1.6-3.1,2.8-5.3c0.9-2.2,2.2-4.1,3.1-6.3c1.3-2.2,2.5-4.4,3.4-6.6c1.3-2.2,2.2-4.1,3.1-6c0.9-1.9,1.6-3.1,2.5-4.4
				c0.6-1.3,0.9-1.9,1.3-2.2c-0.9,0-1.6-0.3-2.5-0.3c-0.9,0-1.9,0-2.5,0c-0.6,0-1.3,0-2.2,0s-1.9,0-2.8,0.3c-1.6,0-2.5,0.3-3.4,0.3
				c-0.9,0.3-1.6,0.6-2.2,0.9c-0.3,0.3-0.6,0.3-0.6,0.6s-0.3,0.3-0.3,0.6c0,0.3,0,0.3,0,0.3s0,0.3-0.3,0.3c-0.3,0-0.3,0-0.6-0.3
				c0,0-0.3-0.3-0.3-0.6s-0.3-0.3-0.3-0.6c0-0.3,0-0.3,0-0.6c0-0.3,0.3-0.9,0.9-1.3c0.6-0.3,1.3-0.6,1.9-0.9s1.6-0.3,2.5-0.6
				c0.9-0.3,1.9-0.3,2.8-0.6c0.9,0,1.9-0.3,2.5-0.3c0.6,0,1.3,0,1.6,0c1.6,0,3.1,0,4.7,0.3c1.6,0.3,3.1,0.3,4.7,0.9
				c1.6,0.3,3.1,0.9,4.4,1.6s2.8,1.6,3.8,2.5c0.9,0.9,1.9,2.2,2.8,3.8c0.9,1.6,0.9,3.1,1.3,4.7c0,2.2-0.3,4.1-0.9,6
				c-0.6,1.9-1.9,3.8-3.1,5.3c-1.3,1.6-3.1,3.1-5,4.4c-1.9,1.3-3.8,2.5-6,3.4c-2.2,0.9-4.4,1.6-6.6,2.2s-4.7,0.9-6.6,0.9
				c-0.3,0-0.6,0-0.9,0c-0.3,0-0.6,0-1.3,0c0,0.3-0.3,0.3-0.3,0.6c0,0.3-0.3,0.6-0.3,0.6l0.3,0.3l0.3,0.3c0,0.3,0,0.3-0.3,0.6
				c-0.3,0.3-0.3,0.3-0.6,0.6c-0.3,0-0.6,0.3-0.9,0.3s-0.6,0-0.6,0c-0.3,0-0.6,0-0.9-0.3c-0.3,0.3-0.6,0-0.6-0.3c0,0,0-0.3,0.3-0.9
				C16.3,44.2,16.6,43.3,17.2,42.6z M20.7,40.4L20.7,40.4c2.2,0,4.4-0.3,6.6-0.6c2.2-0.3,4.4-1.3,6.3-1.9c2.2-0.9,4.1-1.9,6-3.1
				c1.9-1.3,3.4-2.5,4.7-4.1c1.3-1.6,2.5-3.1,3.1-4.7s1.3-3.4,0.9-5c0-1.9-0.6-3.1-1.3-4.4c-0.9-1.3-1.9-2.5-3.1-3.1
				c-1.3-0.9-2.5-1.6-3.8-2.2c-1.3-0.6-2.8-0.9-4.1-1.3c-2.2,5-4.7,10-7.2,15C26,30.4,23.5,35.4,20.7,40.4z"/>
		</g>
		<path class="st0" d="M41.4,1.6c0-0.3,0-0.3,0-0.6s0-0.3-0.3-0.6L40.8,0c-0.3,0-0.9,0-1.6,0.3c-0.9,0.3-1.9,0.9-2.8,1.6
			c-1.3,0.6-2.5,1.3-3.8,2.2C31.3,5,29.5,6,28.2,6.9c-1.3,0.9-2.5,1.6-3.8,2.5c-0.9,0.6-2.2,1.6-3.1,2.2c-0.9,0.9-1.9,1.9-2.8,2.5
			c-0.3,0.6-0.9,0.9-1.6,1.6c-0.6,0.3-1.6,0.9-2.2,1.6c-0.6,0.6-1.3,0.9-1.9,1.6c-0.6,0.6-1.3,0.9-1.6,1.6c-0.3,0.3-0.6,0.9-0.6,1.3
			c0,0.3,0,0.3,0.3,0.6c0.3,0,0.3,0.3,0.6,0.3c0,0,0.3,0,0.3-0.3c0.3,0,0.3-0.3,0.6-0.3c-0.3,0,0-0.3,0-0.3v-0.3
			c0-0.3,0.3-0.6,0.9-0.9c0.3-0.3,0.9-0.9,1.6-1.3c0.6-0.6,1.3-1.3,1.9-1.9c0.9-0.3,1.6-0.9,2.2-1.6c0.6-0.6,1.3-0.9,1.9-1.3
			c1.9-1.3,3.4-2.8,5-4.1c1.9-1.3,4.1-2.8,6-4.1c2.5-1.6,5.3-3.1,8.2-4.7c-0.6,0.9-1.3,1.9-1.9,2.8S37,6.3,36.4,6.9
			c-0.6,0.6-1.3,2.2-1.9,3.1c-0.6,0.9-1.3,1.9-1.9,2.8c-0.6,1.3-1.3,2.2-1.9,3.4c-0.6,0.6-0.9,1.6-1.3,2.5c-0.3,0.6-0.9,1.6-1.3,2.5
			c-0.3,0.9-0.6,1.9-0.3,2.8v0.3c0.3,0.3,0.3,0.3,0.6,0l0,0l0,0c0.6-0.6,0.9-1.3,1.3-1.9c0.3-0.9,0.6-1.6,1.3-2.5
			c0.3-1.3,0.6-2.2,1.3-3.1c0.6-0.9,0.6-2.2,1.3-2.8c0.6-1.3,1.6-2.2,2.2-3.1c0.3-0.6,0.9-1.3,1.3-1.9c0.3-0.6,0.9-1.3,1.3-1.9
			s0.9-1.3,1.3-1.9c0.6-0.9,0.9-1.3,1.3-1.9s0.3-0.9,0.6-1.3C41.4,1.9,41.4,1.6,41.4,1.6z"/>
	</g>
</g>
<g>
	<g>
		<path class="st0" d="M66.4,39c-0.1,0.8-0.4,1.5-0.9,2c-0.5,0.5-1.3,0.7-2.2,0.7c-0.6,0-1.2-0.1-1.6-0.4c-0.5-0.3-0.8-0.7-1.1-1.3
			s-0.5-1.3-0.6-2v-0.7c0-0.7,0.1-1.4,0.4-1.9c0.3-0.6,0.6-1,1.1-1.3s1.1-0.5,1.7-0.5c0.9,0,1.6,0.2,2.2,0.7c0.5,0.5,0.8,1.1,0.9,2
			h-1.4c-0.1-0.6-0.2-1-0.5-1.2c-0.3-0.2-0.6-0.4-1.2-0.4s-1,0.2-1.4,0.6c-0.3,0.4-0.5,1.1-0.5,1.9v0.7c0,0.8,0.2,1.5,0.5,1.9
			c0.3,0.4,0.7,0.7,1.3,0.7c0.5,0,0.9-0.1,1.2-0.4c0.3-0.3,0.4-0.6,0.5-1.2h1.6V39z"/>
		<path class="st0" d="M74.9,37.8c0,0.8-0.1,1.4-0.4,2c-0.3,0.6-0.6,1-1.1,1.3c-0.5,0.3-1.1,0.5-1.7,0.5c-0.6,0-1.2-0.2-1.7-0.5
			c-0.5-0.3-0.9-0.8-1.1-1.3c-0.3-0.6-0.4-1.2-0.4-2v-0.4c0-0.8,0.1-1.4,0.4-2c0.3-0.6,0.7-1,1.1-1.3c0.5-0.3,1.1-0.5,1.7-0.5
			c0.6,0,1.2,0.2,1.7,0.5s0.9,0.7,1.1,1.3c0.3,0.6,0.4,1.2,0.4,2V37.8z M73.5,37.3c0-0.9-0.2-1.5-0.5-2s-0.8-0.7-1.4-0.7
			s-1,0.2-1.4,0.7c-0.3,0.5-0.5,1.1-0.5,2v0.5c0,0.9,0.2,1.5,0.5,2c0.3,0.5,0.8,0.7,1.4,0.7s1.1-0.2,1.4-0.7s0.5-1.1,0.5-2V37.3z"/>
		<path class="st0" d="M79,33.6l2.4,6.1l2.3-6.1h1.8v8H84v-2.7l0.1-3.5l-2.4,6.1h-1l-2.4-6.1l0.1,3.5v2.7H77v-8H79z"/>
		<path class="st0" d="M89.3,38.6v3h-1.4v-8H91c0.9,0,1.6,0.2,2.2,0.7c0.5,0.5,0.8,1.1,0.8,1.8c0,0.8-0.3,1.4-0.8,1.8
			c-0.5,0.4-1.2,0.6-2.2,0.6C91,38.6,89.3,38.6,89.3,38.6z M89.3,37.4H91c0.5,0,0.9-0.1,1.1-0.3c0.3-0.2,0.4-0.6,0.4-1
			s-0.1-0.8-0.4-1c-0.3-0.3-0.6-0.4-1.1-0.4h-1.7v2.8H89.3z"/>
		<path class="st0" d="M99.6,39.7h-3.1l-0.6,1.8h-1.4l3.1-8h1.2l3.1,8h-1.4L99.6,39.7z M96.8,38.6h2.4L98,35.3L96.8,38.6z"/>
		<path class="st0" d="M109.8,41.5h-1.4l-3.6-5.6v5.6h-1.4v-8h1.4l3.6,5.7v-5.7h1.3v8H109.8z"/>
		<path class="st0" d="M114.8,37.3l1.8-3.8h1.5l-2.7,5v3h-1.4v-3l-2.7-5h1.5L114.8,37.3z"/>
		<path class="st0" d="M125.2,41.5h-1.4v-8h1.4V41.5z"/>
		<path class="st0" d="M128.9,35.6v0.7c0.4-0.5,1-0.8,1.7-0.8c1.2,0,1.8,0.7,1.8,2.2v3.9h-1.3v-3.9c0-0.4-0.1-0.6-0.2-0.8
			c-0.2-0.2-0.4-0.3-0.8-0.3c-0.5,0-0.9,0.2-1.2,0.7v4.2h-1.2v-5.8H128.9z"/>
		<path class="st0" d="M136.4,34.2v1.4h1v1h-1v3.3c0,0.2,0,0.4,0.1,0.5c0.1,0.1,0.2,0.1,0.5,0.1c0.2,0,0.3,0,0.5-0.1v1
			c-0.3,0.1-0.6,0.1-0.9,0.1c-1,0-1.5-0.6-1.5-1.7v-3.2h-1v-1h1v-1.4H136.4z"/>
		<path class="st0" d="M142.1,41.6c-0.8,0-1.5-0.3-2-0.8c-0.5-0.5-0.8-1.2-0.8-2.2v-0.2c0-0.6,0.1-1.1,0.3-1.6
			c0.2-0.5,0.5-0.8,0.9-1.1c0.4-0.3,0.9-0.4,1.4-0.4c0.8,0,1.4,0.3,1.8,0.8c0.4,0.5,0.6,1.2,0.6,2.2v0.5h-3.9c0,0.5,0.2,0.9,0.5,1.1
			c0.3,0.2,0.6,0.4,1.1,0.4c0.6,0,1.1-0.2,1.5-0.7l0.7,0.7c-0.2,0.3-0.5,0.6-0.9,0.8C143,41.5,142.6,41.6,142.1,41.6z M141.9,36.5
			c-0.4,0-0.6,0.1-0.9,0.4c-0.2,0.3-0.4,0.6-0.4,1h2.6v-0.1c0-0.4-0.1-0.8-0.3-1C142.6,36.7,142.3,36.5,141.9,36.5z"/>
		<path class="st0" d="M149.5,36.8c-0.2,0-0.3,0-0.5,0c-0.6,0-1,0.2-1.2,0.7v4.1h-1.3v-6h1.2v0.6c0.3-0.5,0.8-0.8,1.3-0.8
			c0.2,0,0.3,0,0.5,0.1V36.8z"/>
		<path class="st0" d="M152.5,35.6v0.7c0.4-0.5,1-0.8,1.7-0.8c1.2,0,1.8,0.7,1.8,2.2v3.9h-1.3v-3.9c0-0.4-0.1-0.6-0.2-0.8
			c-0.2-0.2-0.4-0.3-0.8-0.3c-0.5,0-0.9,0.2-1.2,0.7v4.2h-1.3v-5.8H152.5z"/>
		<path class="st0" d="M161.9,41.5c-0.1-0.1-0.1-0.3-0.2-0.5c-0.4,0.4-0.9,0.6-1.5,0.6s-1.1-0.2-1.4-0.5c-0.4-0.3-0.6-0.7-0.6-1.2
			c0-0.6,0.2-1.1,0.7-1.4c0.5-0.3,1.1-0.5,2-0.5h0.8v-0.4c0-0.3-0.1-0.5-0.3-0.7c-0.2-0.2-0.4-0.3-0.8-0.3c-0.3,0-0.5,0.1-0.7,0.2
			c-0.2,0.1-0.3,0.3-0.3,0.6h-1.2c0-0.3,0.1-0.6,0.3-0.9c0.2-0.3,0.5-0.5,0.9-0.7c0.4-0.2,0.8-0.2,1.2-0.2c0.7,0,1.2,0.2,1.6,0.5
			c0.4,0.3,0.6,0.8,0.6,1.4v2.7c0,0.5,0.1,0.9,0.2,1.3v0.1L161.9,41.5L161.9,41.5z M160.5,40.6c0.3,0,0.5-0.1,0.7-0.2
			c0.2-0.1,0.4-0.3,0.5-0.5v-1.1H161c-0.5,0-0.8,0.1-1.1,0.3c-0.2,0.2-0.4,0.4-0.4,0.7c0,0.3,0.1,0.5,0.2,0.6
			C160,40.5,160.2,40.6,160.5,40.6z"/>
		<path class="st0" d="M167.1,34.2v1.4h1v1h-1v3.3c0,0.2,0,0.4,0.1,0.5s0.2,0.1,0.5,0.1c0.2,0,0.3,0,0.5-0.1v1
			c-0.3,0.1-0.6,0.1-0.9,0.1c-1,0-1.5-0.6-1.5-1.7v-3.2h-1v-1h1v-1.4H167.1z"/>
		<path class="st0" d="M170,34.1c0-0.2,0.1-0.4,0.2-0.5c0.1-0.1,0.3-0.2,0.5-0.2c0.2,0,0.4,0.1,0.5,0.2c0.1,0.1,0.2,0.3,0.2,0.5
			c0,0.2-0.1,0.4-0.2,0.5c-0.1,0.1-0.3,0.2-0.5,0.2c-0.2,0-0.4-0.1-0.5-0.2C170.1,34.5,170,34.3,170,34.1z M171.5,41.5h-1.3v-5.9
			h1.3V41.5z"/>
		<path class="st0" d="M173.6,38.6c0-0.6,0.1-1.1,0.3-1.5c0.2-0.5,0.5-0.8,1-1.1c0.4-0.2,0.9-0.4,1.4-0.4c0.8,0,1.4,0.3,1.9,0.8
			c0.5,0.5,0.8,1.2,0.8,2v0.3c0,0.6-0.1,1.1-0.3,1.5c-0.2,0.5-0.5,0.8-0.9,1c-0.4,0.2-0.9,0.4-1.4,0.4c-0.8,0-1.5-0.3-2-0.8
			C173.8,40.3,173.6,39.5,173.6,38.6L173.6,38.6z M174.9,38.7c0,0.6,0.1,1.1,0.4,1.4c0.2,0.3,0.6,0.5,1,0.5s0.8-0.2,1-0.5
			c0.2-0.3,0.4-0.8,0.4-1.5c0-0.6-0.1-1.1-0.4-1.4c-0.3-0.3-0.6-0.5-1-0.5s-0.8,0.2-1,0.5C175,37.4,174.9,38,174.9,38.7z"/>
		<path class="st0" d="M182.4,35.6v0.7c0.4-0.5,1-0.8,1.7-0.8c1.2,0,1.8,0.7,1.8,2.2v3.9h-1.3v-3.9c0-0.4-0.1-0.6-0.2-0.8
			c-0.2-0.2-0.4-0.3-0.8-0.3c-0.5,0-0.9,0.2-1.2,0.7v4.2h-1.3v-5.8H182.4z"/>
		<path class="st0" d="M191.8,41.5c-0.1-0.1-0.1-0.3-0.2-0.5c-0.4,0.4-0.9,0.6-1.5,0.6s-1.1-0.2-1.4-0.5c-0.4-0.3-0.6-0.7-0.6-1.2
			c0-0.6,0.2-1.1,0.7-1.4c0.5-0.3,1.1-0.5,2-0.5h0.8v-0.4c0-0.3-0.1-0.5-0.3-0.7c-0.2-0.2-0.4-0.3-0.8-0.3c-0.3,0-0.5,0.1-0.7,0.2
			c-0.2,0.1-0.3,0.3-0.3,0.6h-1.3c0-0.3,0.1-0.6,0.3-0.9c0.2-0.3,0.5-0.5,0.9-0.7c0.4-0.2,0.8-0.2,1.2-0.2c0.7,0,1.2,0.2,1.6,0.5
			c0.4,0.3,0.6,0.8,0.6,1.4v2.7c0,0.5,0.1,0.9,0.2,1.3v0.1L191.8,41.5L191.8,41.5z M190.4,40.6c0.3,0,0.5-0.1,0.7-0.2
			c0.2-0.1,0.4-0.3,0.5-0.5v-1.1h-0.7c-0.5,0-0.8,0.1-1.1,0.3c-0.2,0.2-0.4,0.4-0.4,0.7c0,0.3,0.1,0.5,0.2,0.6
			C189.9,40.5,190.1,40.6,190.4,40.6z"/>
		<path class="st0" d="M196.8,41.5h-1.3V33h1.3V41.5z"/>
		<path class="st0" d="M209,39c-0.1,0.8-0.4,1.5-0.9,2c-0.5,0.5-1.3,0.7-2.2,0.7c-0.6,0-1.2-0.1-1.6-0.4c-0.5-0.3-0.8-0.7-1.1-1.3
			s-0.4-1.2-0.4-1.9v-0.7c0-0.7,0.1-1.4,0.4-1.9c0.3-0.6,0.6-1,1.1-1.3c0.5-0.3,1.1-0.5,1.7-0.5c0.9,0,1.6,0.2,2.2,0.7
			c0.5,0.5,0.8,1.1,0.9,2h-1.4c-0.1-0.6-0.2-1-0.5-1.2c-0.3-0.2-0.6-0.4-1.2-0.4c-0.6,0-1,0.2-1.4,0.6c-0.3,0.4-0.5,1.1-0.5,1.9V38
			c0,0.8,0.2,1.5,0.5,1.9s0.7,0.7,1.3,0.7c0.5,0,0.9-0.1,1.2-0.4c0.3-0.3,0.4-0.6,0.5-1.2C207.6,39,209,39,209,39z"/>
		<path class="st0" d="M210.8,38.6c0-0.6,0.1-1.1,0.3-1.5c0.2-0.5,0.5-0.8,1-1.1c0.4-0.2,0.9-0.4,1.4-0.4c0.8,0,1.4,0.3,1.9,0.8
			c0.5,0.5,0.8,1.2,0.8,2v0.3c0,0.6-0.1,1.1-0.3,1.5c-0.2,0.5-0.5,0.8-0.9,1c-0.4,0.2-0.9,0.4-1.4,0.4c-0.8,0-1.5-0.3-2-0.8
			C211.1,40.3,210.8,39.5,210.8,38.6L210.8,38.6z M212.1,38.7c0,0.6,0.1,1.1,0.4,1.4c0.2,0.3,0.6,0.5,1,0.5s0.8-0.2,1-0.5
			c0.2-0.3,0.4-0.8,0.4-1.5c0-0.6-0.1-1.1-0.4-1.4c-0.3-0.3-0.6-0.5-1-0.5s-0.8,0.2-1,0.5C212.2,37.4,212.1,38,212.1,38.7z"/>
		<path class="st0" d="M219.2,40.1c0.2,0,0.4,0.1,0.6,0.2c0.1,0.1,0.2,0.3,0.2,0.5s-0.1,0.4-0.2,0.5c-0.1,0.1-0.3,0.2-0.6,0.2
			c-0.2,0-0.4-0.1-0.6-0.2c-0.1-0.1-0.2-0.3-0.2-0.5s0.1-0.4,0.2-0.5C218.8,40.2,219,40.1,219.2,40.1z"/>
		<path class="st0" d="M222.6,43.4l-0.7-0.4c0.2-0.3,0.3-0.6,0.4-0.9c0.1-0.2,0.1-0.5,0.1-0.7v-1h1.2v0.9c0,0.4-0.1,0.8-0.3,1.1
			C223.2,42.8,222.9,43.1,222.6,43.4z"/>
		<path class="st0" d="M231.1,40.4h3.6v1.1h-5v-8h1.4V40.4z"/>
		<path class="st0" d="M238.1,34.2v1.4h1v1h-1v3.3c0,0.2,0,0.4,0.1,0.5c0.1,0.1,0.2,0.1,0.5,0.1c0.2,0,0.3,0,0.5-0.1v1
			c-0.3,0.1-0.6,0.1-0.9,0.1c-1,0-1.5-0.6-1.5-1.7v-3.2h-1v-1h1v-1.4H238.1z"/>
		<path class="st0" d="M240.9,38.6c0-0.9,0.2-1.6,0.6-2.3c0.4-0.5,1-0.8,1.7-0.8c0.6,0,1.1,0.2,1.5,0.6V33h1.3v8.5h-1.2l-0.1-0.6
			c-0.4,0.5-0.9,0.7-1.6,0.7c-0.7,0-1.2-0.3-1.7-0.8S240.9,39.5,240.9,38.6z M242.2,38.7c0,0.6,0.1,1.1,0.3,1.4
			c0.2,0.3,0.6,0.5,1,0.5c0.5,0,0.9-0.2,1.2-0.7v-2.6c-0.2-0.5-0.6-0.7-1.2-0.7c-0.4,0-0.7,0.2-1,0.5
			C242.3,37.4,242.2,38,242.2,38.7z"/>
		<path class="st0" d="M249.2,40.1c0.2,0,0.4,0.1,0.6,0.2c0.1,0.1,0.2,0.3,0.2,0.5s-0.1,0.4-0.2,0.5c-0.1,0.1-0.3,0.2-0.6,0.2
			c-0.2,0-0.4-0.1-0.6-0.2c-0.1-0.1-0.2-0.3-0.2-0.5s0.1-0.4,0.2-0.5C248.8,40.2,249,40.1,249.2,40.1z"/>
	</g>
	<g>
		<g>
			<path class="st0" d="M77.5,26.1h-3.3l-1.8-4.9h-7.6l-1.6,4.9h-3.3l7.1-18.9h3.3L77.5,26.1z M71.6,18.8L69,11.3
				c-0.1-0.3-0.3-0.8-0.3-1.4h-0.1c-0.1,0.5-0.1,1-0.3,1.4l-2.6,7.5H71.6z"/>
			<path class="st0" d="M106.1,7.2l-5.3,18.9h-3.4l-3.6-13.3c-0.1-0.6-0.3-1.3-0.3-2l0,0c-0.1,0.8-0.1,1.4-0.4,2l-3.6,13.3h-3.4
				L80.7,7.2H84l3.5,13.9c0.1,0.6,0.3,1.3,0.3,2h0.1c0-0.5,0.1-1.3,0.4-2l3.9-13.8h3l3.6,14c0.1,0.5,0.3,1.1,0.4,1.9l0,0
				c0-0.6,0.1-1.3,0.4-1.9L103,7.2H106.1z"/>
			<path class="st0" d="M126.9,26.1h-3.3l-1.8-4.9h-7.6l-1.6,4.9h-3.3l7.1-18.9h3.3L126.9,26.1z M121,18.8l-2.6-7.5
				c-0.1-0.3-0.3-0.8-0.3-1.4H118c-0.1,0.5-0.1,1-0.3,1.4l-2.6,7.5H121z"/>
			<path class="st0" d="M147.3,26.1h-3.9l-6.6-8.5c-0.3-0.3-0.4-0.6-0.5-0.8l0,0v9.3h-2.9V7.2h2.9v8.9l0,0c0.1-0.3,0.3-0.5,0.5-0.8
				l6.4-8.1h3.6l-7.6,9L147.3,26.1z"/>
			<path class="st0" d="M163.8,26.1h-10.5V7.2h10v2.5h-7.1v5.6h6.6v2.5h-6.6v5.8h7.5v2.5H163.8z"/>
			<path class="st0" d="M187,26.1h-3.3l-9.1-13.9c-0.4-0.5-0.6-1-0.8-1.4h-0.1c0.1,0.5,0.1,1.4,0.1,2.8v12.5H171V7.2h3.5l8.8,13.6
				c0.4,0.6,0.8,1.1,0.9,1.4l0,0c-0.1-0.6-0.1-1.5-0.1-2.8V7.2h2.9v18.9H187z"/>
			<path class="st0" d="M198.3,9.6L198.3,9.6v14.1l0,0v2.4h-2.9v-2.4l0,0V9.6l0,0V7.2h2.9V9.6z"/>
			<path class="st0" d="M222.7,26.1h-3.3l-9.1-13.9c-0.4-0.5-0.6-1-0.8-1.4h-0.1c0.1,0.5,0.1,1.4,0.1,2.8v12.5h-2.9V7.2h3.5
				l8.8,13.6c0.4,0.6,0.8,1.1,0.9,1.4l0,0c-0.1-0.6-0.1-1.5-0.1-2.8V7.2h2.9v18.9H222.7z"/>
			<path class="st0" d="M245.7,24.9c-1.9,1.1-4.1,1.6-6.5,1.6c-2.9,0-5.1-0.9-6.8-2.6s-2.5-4-2.5-6.9c0-3,1-5.4,2.9-7.3
				c1.9-1.9,4.3-2.9,7.3-2.9c2,0,3.8,0.4,5.3,1v3c-1.5-0.9-3.3-1.4-5.4-1.4c-2,0-3.6,0.6-4.9,2s-1.9,3.1-1.9,5.3
				c0,2.3,0.6,4,1.8,5.3c1.1,1.3,2.8,1.9,4.8,1.9c1.4,0,2.4-0.3,3.4-0.8v-4.6h-4V16h7v8.9H245.7z"/>
		</g>
	</g>
</g>
</svg>
