<svg xmlns="http://www.w3.org/2000/svg" viewBox="0 0 24 24"><path d="M12 2.16c3.2 0 3.58.01 4.85.07 1.17.05 1.8.25 2.23.41.56.22.96.48 1.38.9.42.42.68.82.9 1.38.16.42.36 1.06.41 2.23.06 1.26.07 1.64.07 4.85s-.01 3.58-.07 4.85c-.05 1.17-.25 1.8-.41 2.23-.22.56-.48.96-.9 1.38-.42.42-.82.68-1.38.9-.42.16-1.06.36-2.23.41-1.26.06-1.64.07-4.85.07s-3.58-.01-4.85-.07c-1.17-.05-1.8-.25-2.23-.41a3.71 3.71 0 0 1-1.38-.9 3.71 3.71 0 0 1-.9-1.38c-.16-.42-.36-1.06-.41-2.23-.06-1.26-.07-1.64-.07-4.85s.01-3.58.07-4.85c.05-1.17.25-1.8.41-2.23.22-.56.48-.96.9-1.38.42-.42.82-.68 1.38-.9.42-.16 1.06-.36 2.23-.41 1.26-.06 1.64-.07 4.85-.07M12 0C8.74 0 8.33.01 7.05.07 5.78.13 4.9.33 4.14.63 3.36.94 2.69 1.34 2.03 2c-.66.66-1.06 1.33-1.37 2.11C.33 4.9.13 5.78.07 7.05.01 8.33 0 8.74 0 12s.01 3.67.07 4.95c.06 1.27.26 2.15.56 2.91.31.78.71 1.45 1.37 2.11.66.66 1.33 1.06 2.11 1.37.76.3 1.64.5 2.91.56C8.33 23.99 8.74 24 12 24s3.67-.01 4.95-.07c1.27-.06 2.15-.26 2.91-.56.78-.31 1.45-.71 2.11-1.37.66-.66 1.06-1.33 1.37-2.11.3-.76.5-1.64.56-2.91.06-1.28.07-1.69.07-4.95s-.01-3.67-.07-4.95c-.06-1.27-.26-2.15-.56-2.91A5.85 5.85 0 0 0 21.97 2c-.66-.66-1.33-1.06-2.11-1.37C19.1.33 18.22.13 16.95.07 15.67.01 15.26 0 12 0z"/><path d="M12 5.84a6.16 6.16 0 1 0 0 12.32 6.16 6.16 0 0 0 0-12.32zM12 16a4 4 0 1 1 0-8 4 4 0 0 1 0 8z"/><circle cx="18.41" cy="5.59" r="1.44"/></svg>
