<?xml version="1.0" encoding="utf-8"?>
<!-- Generator: Adobe Illustrator 24.3.0, SVG Export Plug-In . SVG Version: 6.00 Build 0)  -->
<svg version="1.1" id="圖層_1" xmlns="http://www.w3.org/2000/svg" xmlns:xlink="http://www.w3.org/1999/xlink" x="0px" y="0px"
	 viewBox="0 0 16 16" width="16" height="16" style="enable-background:new 0 0 16 16;" xml:space="preserve">
<style type="text/css">
	.st0{fill:#a50000;}
</style>
<g>
	<path class="st0" d="M16,7.5c-1.1,0-2.2,0-3.3,0c0-1.1-0.2-2.2-0.4-3.3c0.2,0,0.4,0,0.5,0c0.7,0,1.4,0,2.1,0c0.1,0,0.2,0,0.3,0.2
		c0.4,0.9,0.8,1.8,0.9,2.8c0,0,0,0,0,0.1C16,7.4,16,7.5,16,7.5z"/>
	<path class="st0" d="M16,8.7c-0.1,0.3-0.1,0.6-0.2,0.9c-0.2,0.7-0.4,1.4-0.8,2.1c0,0-0.1,0.1-0.1,0.1c-0.9,0-1.7,0-2.6,0
		c0,0,0,0-0.1,0c0.3-1.1,0.4-2.2,0.4-3.3c1.1,0,2.2,0,3.3,0C16,8.6,16,8.6,16,8.7z"/>
	<path class="st0" d="M8.5,16c0-1.1,0-2.2,0-3.3c0.8,0,1.7,0,2.5,0c-0.2,0.6-0.5,1.2-0.8,1.8c-0.2,0.4-0.5,0.8-0.9,1.1
		C9.1,15.7,8.8,15.9,8.5,16C8.5,16,8.5,16,8.5,16z"/>
	<path class="st0" d="M7.5,16c-0.5-0.2-0.8-0.5-1.2-0.9c-0.6-0.7-1-1.6-1.3-2.5c0.8,0,1.7,0,2.5,0C7.5,13.8,7.5,14.9,7.5,16
		C7.5,16,7.5,16,7.5,16z"/>
	<path class="st0" d="M3.3,8.5c0,1.1,0.2,2.2,0.4,3.3c-0.3,0-0.7,0-1,0c-0.6,0-1.1,0-1.7,0c-0.1,0-0.1,0-0.2-0.1
		c-0.5-1-0.9-2-0.9-3.1c0,0,0,0,0-0.1C1.1,8.5,2.2,8.5,3.3,8.5z"/>
	<path class="st0" d="M3.3,7.5c-1.1,0-2.2,0-3.3,0c0-0.5,0.1-1,0.2-1.5c0.2-0.6,0.4-1.1,0.7-1.7c0,0,0.1-0.1,0.1-0.1
		c0.9,0,1.8,0,2.7,0C3.5,5.3,3.4,6.4,3.3,7.5z"/>
	<path class="st0" d="M7.5,7.5c-1.1,0-2.2,0-3.3,0c0-0.3,0-0.6,0.1-1c0.1-0.7,0.2-1.5,0.4-2.2c0,0,0.1-0.1,0.1-0.1
		c0.9,0,1.8,0,2.7,0C7.5,5.4,7.5,6.4,7.5,7.5z"/>
	<path class="st0" d="M8.5,7.5c0-1.1,0-2.2,0-3.3c0.1,0,0.1,0,0.2,0c0.8,0,1.7,0,2.5,0c0.1,0,0.2,0,0.2,0.1c0.2,1,0.4,2,0.4,3.1
		c0,0,0,0,0,0C10.6,7.5,9.6,7.5,8.5,7.5z"/>
	<path class="st0" d="M7.5,8.5c0,1.1,0,2.2,0,3.3c-0.1,0-0.1,0-0.1,0c-0.8,0-1.7,0-2.5,0c-0.1,0-0.2,0-0.2-0.1
		c-0.2-1-0.4-2.1-0.4-3.1c0,0,0,0,0,0C5.4,8.5,6.4,8.5,7.5,8.5z"/>
	<path class="st0" d="M11.8,8.5c-0.1,0.6-0.1,1.2-0.2,1.8c-0.1,0.4-0.2,0.9-0.3,1.3c0,0.1,0,0.1-0.1,0.1c-0.9,0-1.8,0-2.7,0
		c0-1.1,0-2.2,0-3.3C9.6,8.5,10.6,8.5,11.8,8.5z"/>
	<path class="st0" d="M11,3.3c-0.8,0-1.7,0-2.5,0c0-1.1,0-2.2,0-3.3C8.7,0.1,8.8,0.2,9,0.3c0.4,0.3,0.7,0.6,1,1
		C10.4,1.8,10.9,2.8,11,3.3z"/>
	<path class="st0" d="M7.5,0c0,1.1,0,2.2,0,3.3c-0.8,0-1.7,0-2.5,0c0.2-0.4,0.3-0.8,0.5-1.1c0.3-0.6,0.7-1.3,1.3-1.7
		C7,0.3,7.2,0.1,7.5,0z"/>
	<path class="st0" d="M14.4,12.7c-1,1.4-2.3,2.4-3.9,2.9c0.4-0.5,0.7-1,0.9-1.6c0.2-0.4,0.3-0.8,0.5-1.2c0-0.1,0-0.1,0.1-0.1
		C12.9,12.7,13.6,12.7,14.4,12.7z"/>
	<path class="st0" d="M10.6,0.4c1.6,0.6,2.8,1.6,3.8,2.9c-0.1,0-0.1,0-0.1,0c-0.7,0-1.5,0-2.2,0c-0.1,0-0.1,0-0.2-0.1
		c-0.3-0.8-0.6-1.6-1.1-2.4C10.8,0.7,10.7,0.6,10.6,0.4C10.6,0.4,10.6,0.4,10.6,0.4z"/>
	<path class="st0" d="M1.6,3.3c1-1.4,2.3-2.4,3.9-3c0,0,0,0.1,0,0.1c-0.6,0.8-1,1.7-1.4,2.7C4,3.3,4,3.3,3.8,3.3
		C3.1,3.3,2.3,3.3,1.6,3.3z"/>
	<path class="st0" d="M5.4,15.7c-1.6-0.6-2.8-1.6-3.8-2.9c0.1,0,0.1,0,0.2,0c0.7,0,1.4,0,2.1,0c0.1,0,0.2,0,0.2,0.1
		c0.3,0.9,0.7,1.7,1.2,2.5C5.3,15.4,5.4,15.5,5.4,15.7C5.4,15.6,5.4,15.6,5.4,15.7z"/>
</g>
</svg>
