<?xml version="1.0" encoding="UTF-8"?>
<svg id="Layer_5" xmlns="http://www.w3.org/2000/svg" version="1.1" viewBox="0 0 24 24">
  <!-- Generator: Adobe Illustrator 30.0.0, SVG Export Plug-In . SVG Version: 2.1.1 Build 123)  -->
  <path d="M23.8,7.34c-.73-2.89-3-4.9-5.92-5.25-1.99-.24-3.77.3-5.31,1.59-.19.16-.37.34-.57.53-.56-.61-1.2-1.09-1.91-1.44-1.96-.96-3.94-1.01-5.91-.16C2.09,3.53.75,5.14.19,7.4c-.06.24-.1.49-.14.8L0,8.52v.92s.04.17.04.17c.1.86.36,1.7.8,2.57.66,1.31,1.57,2.53,2.87,3.82,2.09,2.09,4.62,4,7.73,5.81.19.11.38.17.56.17s.37-.06.56-.16c3.12-1.8,5.66-3.7,7.75-5.79,1.29-1.29,2.23-2.55,2.88-3.87.81-1.64,1.01-3.22.61-4.82ZM6.71,3.86l.17-.02c1.85.08,3.23.78,4.24,2.17.07.09.13.18.21.26.18.18.41.29.67.29.25,0,.48-.1.65-.28.07-.07.14-.16.22-.27l.05-.07c1.15-1.51,2.67-2.21,4.54-2.08,2.16.14,4.04,1.73,4.56,3.87.33,1.33.1,2.66-.68,4.06-.64,1.14-1.54,2.24-2.83,3.46-1.8,1.7-3.94,3.27-6.48,4.81-3.11-1.87-5.44-3.65-7.32-5.6-1.18-1.22-1.97-2.35-2.48-3.55-.6-1.39-.54-2.96.16-4.3.72-1.38,2-2.35,3.53-2.66.26-.05.53-.08.78-.09Z"/>
</svg>