<svg width="38" height="38" viewBox="0 0 38 38" fill="none" xmlns="http://www.w3.org/2000/svg">
<path d="M19 0C15.2422 0 11.5687 1.11433 8.44417 3.20208C5.31964 5.28982 2.88436 8.25722 1.4463 11.729C0.00823247 15.2008 -0.368031 19.0211 0.365088 22.7067C1.09821 26.3924 2.90778 29.7778 5.56498 32.435C8.22218 35.0922 11.6077 36.9018 15.2933 37.6349C18.9789 38.368 22.7992 37.9918 26.271 36.5537C29.7428 35.1156 32.7102 32.6804 34.7979 29.5558C36.8857 26.4313 38 22.7578 38 19C38 13.9609 35.9982 9.12816 32.435 5.56497C28.8718 2.00178 24.0391 0 19 0ZM30.875 18.5682C30.8581 18.8094 30.8271 19.0495 30.7822 19.2872C30.632 20.197 30.3244 21.0738 29.8732 21.8781C29.6573 22.2624 28.6188 23.7219 28.3014 24.1063C26.546 26.22 23.6053 28.6598 18.6913 31.0326C18.5876 31.0827 18.4724 31.1042 18.3577 31.095C18.2429 31.0858 18.1327 31.0462 18.0383 30.9802C17.944 30.9142 17.8689 30.8243 17.8209 30.7196C17.7728 30.615 17.7535 30.4994 17.765 30.3849L18.0133 28.1545C18.0321 27.9839 17.9824 27.8128 17.8751 27.6788C17.7678 27.5448 17.6117 27.4589 17.4411 27.4399C15.8063 27.2763 14.2139 26.8223 12.7386 26.0991C9.37046 24.4344 7.12501 21.4614 7.12501 18.0737C7.12501 12.8574 12.4407 8.63636 19 8.63636C22.2948 8.63636 25.2743 9.71591 27.4205 11.4281C29.4306 13.0366 30.7174 15.2194 30.8556 17.6419C30.8786 17.9501 30.8851 18.2593 30.875 18.5682Z" fill="#BF3131"/>
<path d="M14.8654 20.1637C14.9228 20.2199 14.9683 20.2871 14.9991 20.3613C15.0299 20.4356 15.0454 20.5152 15.0446 20.5956C15.0449 20.6754 15.0294 20.7545 14.999 20.8284C14.9687 20.9023 14.924 20.9694 14.8676 21.026C14.8113 21.0825 14.7443 21.1274 14.6706 21.158C14.5968 21.1887 14.5177 21.2044 14.4379 21.2044H12.0089C11.8476 21.2039 11.6931 21.1395 11.579 21.0255C11.4649 20.9114 11.4006 20.7569 11.4 20.5956V16.0075C11.3995 15.9272 11.4151 15.8476 11.4459 15.7734C11.4766 15.6992 11.522 15.632 11.5792 15.5757C11.6642 15.4904 11.7726 15.4324 11.8907 15.4089C12.0088 15.3855 12.1311 15.3977 12.2423 15.444C12.3534 15.4903 12.4482 15.5686 12.5147 15.6689C12.5812 15.7693 12.6163 15.8871 12.6156 16.0075V19.9867H14.4379C14.5174 19.9861 14.5962 20.0014 14.6696 20.0319C14.743 20.0623 14.8096 20.1071 14.8654 20.1637Z" fill="#BF3131"/>
<path d="M16.8431 15.8758V20.7273C16.8426 20.8531 16.7923 20.9735 16.7034 21.0625C16.6144 21.1515 16.4939 21.2017 16.3681 21.2023H16.0961C15.9701 21.2023 15.8493 21.1522 15.7602 21.0631C15.6711 20.974 15.6211 20.8532 15.6211 20.7273V15.8758C15.6211 15.7498 15.6711 15.629 15.7602 15.5399C15.8493 15.4508 15.9701 15.4008 16.0961 15.4008H16.3617C16.4245 15.4002 16.4868 15.4121 16.5451 15.4356C16.6033 15.4592 16.6564 15.4941 16.7011 15.5382C16.7458 15.5824 16.7814 15.6349 16.8058 15.6928C16.8302 15.7508 16.8429 15.8129 16.8431 15.8758Z" fill="#BF3131"/>
<path d="M22.4827 16.0075V20.5696C22.4828 20.7337 22.4191 20.8915 22.3051 21.0095C22.1911 21.1275 22.0357 21.1967 21.8717 21.2023C21.718 21.1998 21.5708 21.1397 21.4593 21.0338C21.4377 21.0166 20.6216 19.9543 19.9285 19.0604C19.4103 18.3933 18.9612 17.8103 18.9612 17.8103V20.5934C18.9616 20.7113 18.9276 20.8269 18.8634 20.9258C18.7992 21.0248 18.7075 21.1028 18.5996 21.1505C18.4917 21.1981 18.3723 21.2133 18.2559 21.1941C18.1395 21.1749 18.0312 21.1222 17.9443 21.0425C17.8816 20.9857 17.8315 20.9164 17.7973 20.839C17.7631 20.7617 17.7455 20.678 17.7457 20.5934V16.0334C17.7437 15.8731 17.8032 15.7181 17.9121 15.6004C18.0209 15.4827 18.1708 15.4113 18.3308 15.4008C18.4213 15.3993 18.5111 15.4179 18.5936 15.4552C18.6761 15.4926 18.7493 15.5477 18.8079 15.6167C18.8338 15.6469 20.0883 17.2792 20.7943 18.2076C21.075 18.5703 21.2693 18.8251 21.2693 18.8251V16.0183C21.2704 15.8577 21.3347 15.7041 21.4482 15.5905C21.5618 15.477 21.7154 15.4127 21.876 15.4116C22.035 15.4115 22.1878 15.474 22.3012 15.5854C22.4147 15.6969 22.4799 15.8485 22.4827 16.0075Z" fill="#BF3131"/>
<path d="M24.6158 18.9072V19.9867H26.436C26.5188 19.9818 26.6018 19.9938 26.6799 20.0221C26.7579 20.0504 26.8293 20.0944 26.8897 20.1513C26.9501 20.2083 26.9983 20.2769 27.0312 20.3531C27.0641 20.4293 27.0811 20.5115 27.0811 20.5945C27.0811 20.6775 27.0641 20.7596 27.0312 20.8358C26.9983 20.9121 26.9501 20.9807 26.8897 21.0377C26.8293 21.0946 26.7579 21.1385 26.6799 21.1669C26.6018 21.1952 26.5188 21.2072 26.436 21.2023H24.0005C23.8394 21.2017 23.6851 21.1373 23.5714 21.0232C23.4577 20.9091 23.3938 20.7545 23.3938 20.5934V16.0075C23.3944 15.8468 23.4585 15.6928 23.5721 15.5791C23.6858 15.4655 23.8398 15.4014 24.0005 15.4008H26.4295C26.5123 15.3959 26.5953 15.4079 26.6734 15.4362C26.7514 15.4645 26.8228 15.5085 26.8832 15.5654C26.9437 15.6223 26.9918 15.691 27.0247 15.7672C27.0576 15.8434 27.0746 15.9256 27.0746 16.0086C27.0746 16.0916 27.0576 16.1737 27.0247 16.2499C26.9918 16.3261 26.9437 16.3948 26.8832 16.4517C26.8228 16.5087 26.7514 16.5526 26.6734 16.5809C26.5953 16.6093 26.5123 16.6213 26.4295 16.6164H24.6158V17.6959H26.436C26.5969 17.6959 26.7512 17.7598 26.865 17.8736C26.9787 17.9874 27.0427 18.1417 27.0427 18.3026C27.0427 18.4635 26.9787 18.6178 26.865 18.7316C26.7512 18.8454 26.5969 18.9093 26.436 18.9093L24.6158 18.9072Z" fill="#BF3131"/>
</svg>
