<?xml version="1.0" encoding="UTF-8"?>
<svg id="Layer_5" xmlns="http://www.w3.org/2000/svg" version="1.1" viewBox="0 0 24 24">
  <!-- Generator: Adobe Illustrator 30.0.0, SVG Export Plug-In . SVG Version: 2.1.1 Build 123)  -->
  <defs>
    <style>
      .st0 {
        fill: #393939;
      }
    </style>
  </defs>
  <path class="st0" d="M1.75,24s-.06,0-.09,0c-.51-.05-.88-.5-.83-1.01.55-5.68,5.26-9.99,10.95-10.04h.39c5.74.03,10.47,4.35,11.02,10.04.05.51-.32.96-.83,1.01-.5.05-.96-.32-1.01-.83-.46-4.74-4.4-8.33-9.18-8.36h-.37c-4.73.04-8.66,3.63-9.11,8.36-.05.48-.45.84-.92.84Z"/>
  <path class="st0" d="M12,12.48c-3.44,0-6.24-2.8-6.24-6.24S8.56,0,12,0s6.24,2.8,6.24,6.24-2.8,6.24-6.24,6.24ZM12,1.86c-2.42,0-4.38,1.97-4.38,4.38s1.97,4.38,4.38,4.38,4.38-1.97,4.38-4.38-1.97-4.38-4.38-4.38Z"/>
</svg>