<?xml version="1.0" encoding="UTF-8"?>
<svg id="Layer_5" xmlns="http://www.w3.org/2000/svg" version="1.1" viewBox="0 0 24 24">
  <!-- Generator: Adobe Illustrator 30.0.0, SVG Export Plug-In . SVG Version: 2.1.1 Build 123)  -->
  <path d="M22.47,12.85c.07-.53.11-1.05.11-1.56s-.04-1.04-.11-1.56C21.7,4.18,16.89,0,11.29,0h0C8.27,0,5.44,1.17,3.31,3.31,1.17,5.44,0,8.27,0,11.29s1.17,5.85,3.31,7.98c2.13,2.13,4.97,3.31,7.98,3.31,2.67,0,5.15-.95,7.11-2.54l3.96,3.96,1.64-1.64-3.96-3.96c1.27-1.55,2.14-3.45,2.43-5.55ZM11.29,20.26c-2.4,0-4.65-.93-6.34-2.63-1.69-1.69-2.63-3.95-2.63-6.34s.93-4.65,2.63-6.34c1.69-1.69,3.95-2.63,6.34-2.63h0c4.45,0,8.27,3.32,8.88,7.73.06.42.09.84.09,1.24s-.03.82-.09,1.24c-.61,4.41-4.43,7.73-8.88,7.73Z"/>
</svg>