<?xml version="1.0" encoding="UTF-8"?>
<svg id="Layer_5" xmlns="http://www.w3.org/2000/svg" version="1.1" viewBox="0 0 24 24">
  <!-- Generator: Adobe Illustrator 30.0.0, SVG Export Plug-In . SVG Version: 2.1.1 Build 123)  -->
  <path d="M23.87,5.54c-.13-.86-.87-1.44-1.83-1.45H4.82c0-.05-.02-.1-.02-.15l-.31-3C4.42.36,4.04,0,3.47,0,2.68,0,1.88,0,1.09,0,.53,0,.11.42.11.96c0,.53.43.96.97.96.32,0,.64,0,.96,0h.5s.07,0,.1,0l.9,8.48c.17,1.54.33,3.09.49,4.63.14,1.42,1.24,2.42,2.65,2.42,2.25,0,4.51,0,6.76,0,1.95,0,3.91,0,5.86,0,1.3,0,2.32-.82,2.6-2.08.64-2.92,1.26-5.85,1.88-8.78.07-.34.13-.71.08-1.06ZM5.02,6.02h16.94l-1.91,8.9h0c-.09.43-.32.62-.76.62H6.72c-.47,0-.72-.22-.76-.67l-.94-8.84Z"/>
  <path d="M7.61,18.81h0c-.69,0-1.34.27-1.83.76-.49.49-.76,1.14-.77,1.83,0,1.43,1.16,2.6,2.59,2.6.69,0,1.34-.27,1.83-.76.49-.49.76-1.14.76-1.83,0-1.43-1.16-2.6-2.59-2.6ZM8.28,21.4c0,.37-.29.68-.67.68-.18,0-.34-.07-.47-.2-.13-.13-.2-.3-.2-.48,0-.37.3-.67.67-.67.37,0,.67.3.67.67Z"/>
  <path d="M17.42,18.81h0c-1.43,0-2.59,1.17-2.59,2.6,0,1.43,1.17,2.59,2.6,2.59,1.43,0,2.59-1.17,2.59-2.6,0-1.43-1.17-2.59-2.6-2.59ZM18.1,21.4c0,.37-.29.68-.67.68-.18,0-.34-.07-.47-.2-.13-.13-.2-.3-.2-.48,0-.37.3-.67.67-.67.37,0,.67.3.67.67Z"/>
</svg>